<svg width="10" height="9" viewBox="0 0 10 9" fill="none" xmlns="http://www.w3.org/2000/svg">
<path d="M4.99994 3.62775L8.04696 0.580685L8.04701 0.580641C8.10433 0.523383 8.17238 0.477978 8.24725 0.447017C8.32213 0.416056 8.40237 0.400146 8.48339 0.400196C8.56442 0.400246 8.64464 0.416254 8.71947 0.447307C8.79431 0.47836 8.8623 0.523849 8.91956 0.581178C8.97682 0.638507 9.02222 0.706552 9.05318 0.781427C9.08414 0.856303 9.10005 0.936544 9.1 1.01757C9.09995 1.09859 9.08394 1.17882 9.05289 1.25365C9.02184 1.32849 8.97635 1.39648 8.91902 1.45374M4.99994 3.62775L8.84835 1.38298M4.99994 3.62775L1.95381 0.580695L1.9538 0.580685C1.83804 0.464916 1.68102 0.399878 1.5173 0.399878C1.35358 0.399878 1.19657 0.464916 1.0808 0.580685C0.965037 0.696453 0.9 0.853469 0.9 1.01719C0.9 1.18091 0.965037 1.33793 1.0808 1.45369L1.08081 1.4537L4.12781 4.49988M4.99994 3.62775L4.19854 4.42918M8.91902 1.45374L8.84835 1.38298M8.91902 1.45374L8.91905 1.4537L8.84835 1.38298M8.91902 1.45374L5.87205 4.49988M8.84835 1.38298L5.80133 4.42918L5.87205 4.49988M5.87205 4.49988L8.91902 7.54602M5.87205 4.49988L5.80133 4.57058L8.84835 7.61677M8.91902 7.54602L8.91905 7.54605L8.84835 7.61677M8.91902 7.54602C9.0348 7.66166 9.0999 7.81855 9.1 7.98219C9.1001 8.14582 9.03519 8.3028 8.91956 8.41858C8.80392 8.53436 8.64703 8.59946 8.48339 8.59956C8.31976 8.59966 8.16279 8.53475 8.04701 8.41911L8.04696 8.41907L4.99994 5.372M8.91902 7.54602L8.84835 7.61677M8.84835 7.61677L4.99994 5.372M4.99994 5.372L5.07064 5.30128L8.11767 8.34836L4.99994 5.372ZM4.99994 5.372L4.92923 5.30129L1.88309 8.34836C1.83506 8.3964 1.77803 8.4345 1.71527 8.4605C1.6525 8.4865 1.58524 8.49988 1.5173 8.49988C1.38011 8.49988 1.24853 8.44537 1.15151 8.34836C1.10348 8.30032 1.06537 8.24329 1.03938 8.18053C1.01338 8.11777 1 8.0505 1 7.98256C1 7.91463 1.01338 7.84736 1.03938 7.7846C1.06537 7.72184 1.10348 7.66481 1.15151 7.61677L4.19854 4.57058L4.12781 4.49988M4.99994 5.372L1.95381 8.41906L1.9538 8.41907C1.89648 8.47639 1.82843 8.52186 1.75354 8.55289C1.67864 8.58391 1.59837 8.59988 1.5173 8.59988C1.35358 8.59988 1.19657 8.53484 1.0808 8.41907C1.02348 8.36175 0.978011 8.29369 0.946989 8.2188C0.915967 8.1439 0.9 8.06363 0.9 7.98256C0.9 7.9015 0.915967 7.82123 0.946989 7.74633C0.978011 7.67144 1.02348 7.60338 1.0808 7.54606L1.08081 7.54605L4.12781 4.49988M4.12781 4.49988L4.19854 4.42918M4.19854 4.42918L1.15151 1.38298C1.0545 1.28597 1 1.15439 1 1.01719C1 0.87999 1.0545 0.74841 1.15151 0.651395C1.24853 0.55438 1.38011 0.499878 1.5173 0.499878C1.6545 0.499878 1.78608 0.55438 1.88309 0.651395L4.19854 4.42918Z" fill="white" stroke="white" stroke-width="0.2"/>
</svg>
